<svg id="Layer_1" data-name="Layer 1" xmlns="http://www.w3.org/2000/svg" viewBox="0 0 211 246.74"><defs><style>.cls-1,.cls-3{fill:#010e45;}.cls-2{fill:#fd0211;}.cls-2,.cls-3,.cls-4,.cls-6{fill-rule:evenodd;}.cls-11,.cls-4,.cls-5,.cls-7{fill:#fff;}.cls-6{fill:#ffd500;}.cls-7{font-size:29px;letter-spacing:0.1em;}.cls-11,.cls-7{font-family:FranklinGothic-Heavy, Franklin Gothic Heavy;font-weight:800;}.cls-8{letter-spacing:0.11em;}.cls-9{letter-spacing:0.11em;}.cls-10{letter-spacing:0.1em;}.cls-11{font-size:24px;letter-spacing:0.12em;}</style></defs><path class="cls-1" d="M124.5,2h83.34A22.18,22.18,0,0,1,230,24.2V168.76a39.2,39.2,0,0,1-19.13,34l-65.62,40a39.06,39.06,0,0,1-41.51,0l-65.61-40a39.2,39.2,0,0,1-19.13-34V24.2A22.18,22.18,0,0,1,41.16,2Z" transform="translate(-19 -2.04)"/><path class="cls-2" d="M124.5,15.34h83.34a8.88,8.88,0,0,1,8.86,8.86V168.76A25.94,25.94,0,0,1,204,191.45l-65.61,40a26,26,0,0,1-27.7,0L45,191.45A25.94,25.94,0,0,1,32.3,168.76V24.2a8.88,8.88,0,0,1,8.86-8.86Z" transform="translate(-19 -2.04)"/><path class="cls-2" d="M46.65,192.43l-1.61-1A25.94,25.94,0,0,1,32.3,168.76V91.45H46.65Z" transform="translate(-19 -2.04)"/><polygon class="cls-2" points="55.98 207.68 41.63 198.92 41.63 89.41 55.98 89.41 55.98 207.68"/><polygon class="cls-2" points="84.31 224.97 69.95 216.21 69.95 89.41 84.31 89.41 84.31 224.97"/><path class="cls-2" d="M131.63,234.46a25.57,25.57,0,0,1-14.35,0v-143h14.35Z" transform="translate(-19 -2.04)"/><rect class="cls-1" x="10.23" y="92.98" width="190.55" height="6.38"/><path class="cls-3" d="M103.31,98.26V229.79l7.34,4.69a27.42,27.42,0,0,0,6.63,3.09V98.26Z" transform="translate(-19 -2.04)"/><path class="cls-3" d="M131.63,98.2V236.3a28.52,28.52,0,0,0,7-3.09l68.1-41.55a26.91,26.91,0,0,0,13.21-23.55V98.2Z" transform="translate(-19 -2.04)"/><path class="cls-4" d="M173.6,130.29a36.93,36.93,0,1,1-36.92,36.93,36.93,36.93,0,0,1,36.92-36.93" transform="translate(-19 -2.04)"/><path class="cls-1" d="M173.6,200.44a33.22,33.22,0,1,0-23.48-9.73,33.11,33.11,0,0,0,23.48,9.73" transform="translate(-19 -2.04)"/><path class="cls-5" d="M161.78,168l-11.25,3.66L146,168.37l-1.49-1.08v-.07A28.93,28.93,0,0,1,151,148.93h8.11l6.13,8.44-1.72,5.32Z" transform="translate(-19 -2.04)"/><path class="cls-5" d="M171.88,177.84v12.71l-4.52,3.29-1.83,1.33A29.11,29.11,0,0,1,153,187.79a28.78,28.78,0,0,1-4-5l.82-2.55,1.73-5.31,11.25-3.66,4.52,3.29Z" transform="translate(-19 -2.04)"/><path class="cls-5" d="M184.36,171.27l11.26,3.66,1.72,5.31.83,2.55a29.08,29.08,0,0,1-16.49,12.38l-1.84-1.33-4.51-3.29V177.84l4.51-3.28Z" transform="translate(-19 -2.04)"/><path class="cls-5" d="M182,157.37l6.14-8.44h8.1a28.93,28.93,0,0,1,6.48,18.29v.07l-1.49,1.08-4.52,3.29L185.43,168l-1.73-5.31Z" transform="translate(-19 -2.04)"/><path class="cls-5" d="M185.33,146.91l-6.14,8.44H168l-6.14-8.44,1.73-5.32.62-1.91a29.31,29.31,0,0,1,18.75,0l.62,1.91Z" transform="translate(-19 -2.04)"/><polygon class="cls-6" points="154.6 98.82 157.86 108.92 168.48 108.9 159.88 115.12 163.18 125.21 154.6 118.96 146.03 125.21 149.33 115.12 140.73 108.9 151.34 108.92 154.6 98.82"/><polygon class="cls-3" points="41.63 200.48 41.63 96.22 27.65 96.22 27.65 191.55 41.63 200.48"/><polygon class="cls-3" points="55.98 96.22 55.98 209.65 69.95 218.58 69.95 96.22 55.98 96.22"/><rect class="cls-1" x="13.3" y="55.47" width="184.4" height="7.29"/><text class="cls-7" transform="translate(34.19 43.69) scale(1.16 1)">SPO<tspan class="cls-8" x="65" y="0">R</tspan><tspan class="cls-9" x="88.08" y="0">T</tspan><tspan class="cls-10" x="105.03" y="0">S</tspan></text><text class="cls-11" transform="translate(63.07 85.06) scale(1.16 1)">EDGE</text></svg>